<svg width="60" height="60" fill="none" xmlns="http://www.w3.org/2000/svg"><circle cx="30" cy="30" r="29" stroke="#fff" stroke-width="2"/><path d="M34.774 18H24.226A6.233 6.233 0 0018 24.226v10.548A6.233 6.233 0 0024.226 41h10.548A6.233 6.233 0 0041 34.774V24.226A6.233 6.233 0 0034.774 18zM29.5 35.789a6.296 6.296 0 01-6.289-6.289 6.296 6.296 0 016.289-6.289 6.296 6.296 0 016.289 6.289 6.296 6.296 0 01-6.289 6.289zm6.44-11.095a1.86 1.86 0 01-1.859-1.858 1.86 1.86 0 011.858-1.858 1.86 1.86 0 011.859 1.858 1.86 1.86 0 01-1.859 1.858z" fill="#fff"/><path d="M29.5 24.56a4.946 4.946 0 00-4.94 4.94 4.946 4.946 0 004.94 4.94 4.946 4.946 0 004.94-4.94 4.946 4.946 0 00-4.94-4.94zm6.44-2.234a.51.51 0 10.001 1.021.51.51 0 00-.001-1.021z" fill="#fff"/></svg>