<svg width="60" height="60" fill="none" xmlns="http://www.w3.org/2000/svg"><path d="M31.095 32.349a.913.913 0 01-1.292 0l-4.15-4.152a.914.914 0 010-1.292l.738-.738L24.223 24l-1.775 1.776a1.535 1.535 0 000 2.167l7.61 7.611A1.52 1.52 0 0031.14 36a1.52 1.52 0 001.084-.446L34 33.778l-2.167-2.167-.738.738z" fill="#fff"/><path d="M43 26.236c0-2.724-1.046-5.292-2.946-7.23C38.155 17.067 35.64 16 32.971 16h-5.942c-2.67 0-5.185 1.067-7.084 3.006A10.27 10.27 0 0017 26.236v4.767c0 2.109.63 4.138 1.823 5.867a10.114 10.114 0 004.118 3.474v2.738c0 1.416.776 1.918 1.442 1.918.475 0 .95-.24 1.413-.711l2.989-3.051h4.186c2.669 0 5.184-1.068 7.084-3.006A10.27 10.27 0 0043 31.002v-4.766zm-7.634 8.08l-2.207 2.251a3.01 3.01 0 01-2.165.912 3.01 3.01 0 01-2.164-.912l-6.936-7.078a3.175 3.175 0 010-4.42l2.207-2.251a.823.823 0 011.177 0l3.153 3.217a.859.859 0 010 1.201l-.673.687 2.606 2.66.673-.687a.82.82 0 011.177 0l3.152 3.217c.157.16.244.376.244.601a.858.858 0 01-.244.601zM29.37 24.247c0-.469.373-.85.833-.85 2.884 0 5.231 2.395 5.231 5.339 0 .47-.373.85-.832.85a.841.841 0 01-.833-.85c0-2.007-1.6-3.64-3.566-3.64a.841.841 0 01-.833-.849zm8.798 5.339a.841.841 0 01-.833-.85 7.308 7.308 0 00-2.089-5.147 7.015 7.015 0 00-5.043-2.133.841.841 0 01-.833-.85c0-.468.373-.849.833-.849 2.35 0 4.559.934 6.22 2.63A9.012 9.012 0 0139 28.738a.84.84 0 01-.832.849z" fill="#fff"/><circle cx="30" cy="30" r="29" stroke="#fff" stroke-width="2"/></svg>