<svg width="60" height="60" fill="none" xmlns="http://www.w3.org/2000/svg"><circle cx="30" cy="30" r="29" stroke="#fff" stroke-width="2"/><path d="M30.503 16h-.006C23.053 16 17 22.055 17 29.5a13.4 13.4 0 002.57 7.913l-1.682 5.015 5.189-1.659A13.383 13.383 0 0030.503 43C37.947 43 44 36.944 44 29.5S37.947 16 30.503 16zm7.856 19.064c-.326.92-1.619 1.682-2.65 1.905-.705.15-1.626.27-4.728-1.016-3.967-1.644-6.522-5.675-6.721-5.937-.191-.261-1.604-2.134-1.604-4.072 0-1.937.984-2.88 1.38-3.285.327-.333.865-.484 1.381-.484.167 0 .317.008.452.015.397.017.596.04.858.666.325.785 1.119 2.722 1.213 2.921.096.2.192.47.057.731-.126.27-.238.39-.437.62-.199.229-.388.404-.587.65-.182.215-.388.445-.159.841.23.388 1.023 1.683 2.19 2.722 1.508 1.342 2.73 1.77 3.167 1.953.325.135.713.102.951-.15.302-.326.675-.866 1.055-1.398.27-.381.61-.429.969-.294.364.127 2.293 1.08 2.69 1.278.396.199.658.294.754.46.094.168.094.952-.231 1.874z" fill="#fff"/></svg>