<svg width="17" height="20" fill="none" xmlns="http://www.w3.org/2000/svg"><path d="M9.063 11.261a.562.562 0 01-.86 0L5.434 8.148a.731.731 0 01-.178-.485c0-.181.064-.355.178-.484l.492-.553L4.482 5 3.3 6.332a1.255 1.255 0 000 1.625l5.073 5.709a.96.96 0 00.722.334.96.96 0 00.722-.335L11 12.335l-1.445-1.626-.492.553z" fill="#000"/><path d="M17 7.059c0-1.878-.684-3.65-1.926-4.986C13.832.736 12.187 0 10.443 0H6.557c-1.745 0-3.39.736-4.631 2.073C.684 3.41 0 5.18 0 7.059v3.288a7.37 7.37 0 001.192 4.046 6.715 6.715 0 002.692 2.396v1.888c0 .977.508 1.323.943 1.323.31 0 .622-.165.924-.49l1.954-2.105h2.738c1.745 0 3.39-.736 4.631-2.073C16.316 13.995 17 12.225 17 10.346V7.06zm-4.991 5.572l-1.443 1.553a1.92 1.92 0 01-1.416.63 1.92 1.92 0 01-1.415-.63L3.2 9.303c-.78-.84-.78-2.208 0-3.048l1.443-1.553a.525.525 0 01.385-.172c.144 0 .283.062.385.172L7.474 6.92a.61.61 0 01.16.414.609.609 0 01-.16.414l-.44.474 1.704 1.834.44-.474a.517.517 0 01.77 0l2.06 2.22c.103.11.16.258.16.414a.61.61 0 01-.16.414zM8.088 5.688c0-.323.243-.586.544-.586 1.886 0 3.42 1.652 3.42 3.682 0 .324-.243.586-.544.586-.3 0-.544-.262-.544-.586 0-1.384-1.046-2.51-2.332-2.51-.3 0-.544-.262-.544-.586zM13.84 9.37c-.3 0-.544-.262-.544-.586 0-1.34-.485-2.601-1.366-3.55-.881-.948-2.052-1.47-3.298-1.47-.3 0-.544-.263-.544-.586 0-.324.243-.586.544-.586 1.536 0 2.981.644 4.067 1.814 1.087 1.17 1.685 2.724 1.685 4.378 0 .324-.243.586-.544.586z" fill="#000"/></svg>